<svg xmlns="http://www.w3.org/2000/svg" height="24" viewBox="0 -960 960 960" width="24"><path d="M120-200v-60h80v-435.385q0-26.654 18.981-45.634Q237.961-760 264.615-760H800v40H264.615q-10.769 0-17.692 6.923T240-695.385V-260h219.231v60H120Zm482.308 0q-13.731 0-23.02-9.288Q570-218.577 570-232.307v-360.001q0-13.731 9.288-23.019 9.289-9.288 23.02-9.288h206.154q13.731 0 23.019 9.288 9.288 9.288 9.288 23.019v360.001q0 13.73-9.288 23.019Q822.193-200 808.462-200H602.308ZM610-260h190.769v-324.615H610V-260Zm0 0h190.769H610Z"/></svg>