<?xml version="1.0" standalone="no"?>
<!DOCTYPE svg PUBLIC "-//W3C//DTD SVG 20010904//EN"
 "http://www.w3.org/TR/2001/REC-SVG-20010904/DTD/svg10.dtd">
<svg version="1.0" xmlns="http://www.w3.org/2000/svg"
 width="474.000000pt" height="474.000000pt" viewBox="0 0 474.000000 474.000000"
 preserveAspectRatio="xMidYMid meet">

<g transform="translate(0.000000,474.000000) scale(0.100000,-0.100000)"
fill="#000000" stroke="none">
<path d="M2840 4064 c-67 -17 -155 -61 -505 -246 -148 -79 -457 -242 -685
-363 -415 -219 -415 -219 -496 -301 -94 -93 -144 -184 -170 -306 -51 -237 57
-501 259 -635 42 -27 177 -91 262 -123 l30 -11 -100 -54 c-183 -97 -218 -120
-279 -180 -72 -72 -128 -164 -159 -260 -28 -91 -30 -251 -3 -340 85 -284 347
-470 636 -452 115 7 182 33 440 170 118 63 447 237 730 387 283 150 536 287
561 306 97 71 173 177 216 301 23 68 27 93 27 193 0 98 -4 126 -26 187 -71
200 -185 312 -413 408 -60 25 -110 47 -112 49 -2 2 62 39 143 82 224 120 316
216 378 394 25 73 30 100 30 190 0 120 -16 186 -72 295 -45 88 -162 207 -249
253 -126 67 -313 90 -443 56z m253 -159 c211 -55 347 -227 347 -440 0 -134
-57 -260 -155 -342 -25 -21 -128 -81 -228 -135 l-182 -96 0 -103 0 -104 150
-62 c83 -34 171 -73 196 -87 65 -36 145 -125 181 -202 26 -56 32 -82 36 -163
3 -80 1 -106 -18 -160 -27 -81 -80 -161 -135 -206 -49 -41 -1473 -798 -1555
-827 -76 -28 -204 -27 -284 1 -203 72 -314 238 -304 456 3 82 8 101 41 167 56
115 116 164 340 283 l187 99 0 100 0 101 -133 54 c-261 107 -336 162 -400 298
-30 65 -32 74 -32 188 0 114 2 123 32 188 22 46 52 88 95 130 59 58 106 85
778 439 844 444 767 405 832 422 70 19 141 19 211 1z"/>
<path d="M1960 2435 l0 -436 73 39 c39 22 198 106 352 187 154 82 307 163 339
181 l59 32 -34 17 c-19 10 -185 98 -369 195 -184 97 -354 187 -377 199 l-43
21 0 -435z"/>
</g>
</svg>
